<?xml version="1.0" encoding="utf-8"?>
<!-- Generator: Adobe Illustrator 24.2.0, SVG Export Plug-In . SVG Version: 6.00 Build 0)  -->
<svg version="1.1" id="Layer_1" xmlns="http://www.w3.org/2000/svg" xmlns:xlink="http://www.w3.org/1999/xlink" x="0px" y="0px"
	 viewBox="0 0 595.3 841.9" style="enable-background:new 0 0 595.3 841.9;" xml:space="preserve">
<g>
	<path d="M256,449.1L256,449.1c-0.5-0.2-0.9-0.6-1.3-1.1c-0.4-0.5-0.5-1.3-0.5-2.3c0-0.8,0.1-1.7,0.4-2.8c0.3-1.1,0.7-2.4,1.4-3.8
		c0.6-1.5,1.5-3.1,2.6-5c1.1-1.9,2.5-4,4.1-6.3c0.3-0.5,0.5-0.8,0.7-1c0.1-0.3,0.2-0.5,0.2-0.8c0-0.5-0.3-0.9-0.9-0.9
		c-0.3,0-0.5,0.1-0.9,0.3c-0.3,0.2-0.6,0.5-0.9,0.9c-1,1.5-2.3,3.2-3.6,4.9c-1.4,1.7-2.9,3.4-4.4,5c-1.5,1.6-3.1,3.2-4.7,4.6
		c-1.6,1.4-3.1,2.7-4.6,3.8c-1.5,1.1-2.9,2-4.2,2.6c-2.2,1.1-3.8,1.3-4.6,0.3c-0.4-0.4-0.6-1.2-0.6-2.4c0-1.7,0.5-3.5,1.4-5.5
		c0.9-2,2.2-4.1,3.7-6.1c1.5-2,3.3-4,5.3-6c2-1.9,4.1-3.6,6.2-5.1c2.1-1.5,4.3-2.7,6.4-3.5c2.1-0.9,4-1.3,5.7-1.3
		c0.4,0,0.8,0,1.2,0.1c0.3,0,0.7,0.1,1,0.2l0.2,0c0.4,0,0.8-0.3,0.8-0.9c0-0.4-0.2-0.7-0.5-1.1c-0.3-0.4-0.9-0.6-1.6-0.6
		c-1.8,0-3.7,0.3-5.6,0.9c-1.9,0.6-3.8,1.4-5.6,2.5c-1.8,1-3.7,2.3-5.4,3.6c-1.7,1.4-3.4,2.9-4.9,4.4c-1.5,1.6-3,3.2-4.3,4.9
		c-1.3,1.7-2.4,3.3-3.4,4.9c-0.9,1.6-1.7,3.2-2.2,4.6c-0.5,1.5-0.8,2.8-0.8,4c0,1.5,0.3,2.8,1,3.6c1.3,1.6,3.7,1.9,7.1,0.3
		c1.5-0.7,3.2-1.7,5.1-3.1c1.9-1.4,4-3.2,6.2-5.5c1.4-1.4,2.8-2.9,4.3-4.6c-0.1,0.3-0.3,0.5-0.4,0.8c-0.6,1.4-1.2,2.8-1.7,4.3
		c-0.5,1.6-0.8,3-0.8,4.4c0,0.6,0.1,1.3,0.3,1.9c0.2,0.6,0.4,1.1,0.7,1.5c0.3,0.5,0.7,0.8,1,1.1c0.4,0.3,0.8,0.4,1.2,0.4
		c0.1,0,0.3,0,0.5-0.2c0.2-0.2,0.2-0.4,0.2-0.6C256.3,449.6,256.3,449.3,256,449.1z"/>
	<path d="M325.3,444.1c-1.1,0.9-2.4,1.6-3.7,2.1c-0.7,0.3-1.4,0.5-2,0.6c0,0,0.1-0.1,0.1-0.1c0.5-0.5,1-1.1,1.4-1.6
		c0.4-0.6,0.7-1.1,0.9-1.6c0.2-0.6,0.4-1.1,0.4-1.5c0-1-0.6-1.5-1.6-1.5c-0.6,0-1.2,0.2-2,0.7c-0.6,0.4-1.5,1.1-2.6,2.1l0,0
		l-0.2,0.2c0,0-0.1,0.1-0.1,0.1c-0.2,0.2-0.4,0.3-0.5,0.4c0,0-0.1,0.1-0.1,0.1c-0.2,0.1-0.3,0.3-0.5,0.4c-0.4,0.3-0.9,0.6-1.3,0.9
		c-1.3,0.8-2.6,1.5-3.9,2.2c-0.5,0.3-1.1,0.6-1.6,0.9c0.2-0.3,0.4-0.5,0.6-0.8c0.6-0.8,1.1-1.5,1.4-2c0.1-0.1,0.3-0.4,0.6-0.7
		c0.3-0.4,0.7-0.8,1-1.2c0.4-0.4,0.7-0.8,1-1.2c0.4-0.5,0.6-0.9,0.6-1.2c0-0.2-0.1-0.5-0.2-0.7c-0.2-0.2-0.4-0.4-0.7-0.4
		c-0.4,0-0.8,0.3-1.5,1c-0.2,0.2-0.6,0.6-1.3,1.2c-0.6,0.6-1.3,1.2-2.1,1.7c-0.8,0.6-1.6,1.1-2.4,1.6c-0.8,0.4-1.4,0.6-1.9,0.6
		c0-0.2,0.1-0.4,0.3-0.7c0.2-0.4,0.5-0.8,0.8-1.1c0.3-0.4,0.6-0.7,0.9-1l0.8-0.8c0.2-0.2,0.4-0.4,0.4-0.6c0-0.4-0.3-0.6-0.5-0.6
		c-0.5-0.3-1.1-0.2-2,0.5c-0.4,0.4-0.9,0.9-1.3,1.4c-0.2,0.2-0.3,0.5-0.5,0.7c-0.2,0.2-0.4,0.3-0.6,0.5c-0.6,0.4-1.1,0.8-1.8,1.1
		c-0.6,0.3-1.3,0.6-1.9,0.8c-1.3,0.4-2.3,0.4-2.9-0.1c-0.3-0.2-0.4-0.6-0.5-1.2c0.4-0.4,0.8-0.7,1-1c0.4-0.5,0.6-0.8,0.6-1.1
		c0-0.2-0.1-0.4-0.3-0.5c0.1,0,0.2,0,0.3,0c0.1,0,0.2,0,0.5-0.1c0.4-0.1,0.6-0.4,0.6-0.9c0-0.3-0.1-0.5-0.3-0.7
		c-0.2-0.2-0.5-0.3-1.5-0.3c-1.4,0-2.6,0.2-3.7,0.7c-1.1,0.5-2.1,1.1-2.9,1.8c-0.4,0.4-0.8,0.7-1.1,1.1c-0.3,0.2-0.5,0.3-0.8,0.5
		c-1,0.5-2,0.6-2.5,0.1c-0.2-0.2-0.3-0.4-0.3-0.8c0.5-0.5,0.9-1,1.3-1.5c0.4-0.6,0.6-1.1,0.6-1.5c0-0.2,0-0.4-0.1-0.6
		c-0.3-0.7-1.3-0.6-2-0.1c-0.3,0.2-0.6,0.5-0.8,0.9c-0.2,0.3-0.4,0.7-0.5,1.2c-0.1,0.4-0.2,0.7-0.3,1.1c-0.2,0.2-0.6,0.5-1,0.9
		c-0.5,0.5-1,0.9-1.6,1.3c-0.6,0.4-1.1,0.8-1.7,1.1c-0.4,0.2-0.8,0.4-1.1,0.4c0,0,0-0.1,0.1-0.1c0.1-0.2,0.3-0.4,0.4-0.6
		c0.1-0.2,0.3-0.4,0.6-0.7c0.2-0.3,0.5-0.6,0.7-0.9c0.2-0.3,0.4-0.6,0.6-0.9c0.2-0.4,0.3-0.7,0.3-1c0-0.9-1-1.4-2.2-0.4
		c0,0-0.2,0.1-0.9,0.7c-0.6,0.4-1.2,0.8-1.9,1.2c-0.7,0.4-1.4,0.8-2,1.2c-0.5,0.2-0.9,0.4-1.1,0.4c0.1-0.2,0.2-0.4,0.4-0.7
		c0.4-0.5,0.8-1,1.2-1.4c0.4-0.5,0.8-0.9,1.2-1.2c0.5-0.5,0.7-0.8,0.7-1.1c0-0.2-0.1-0.5-0.3-0.7c-0.2-0.2-0.4-0.3-0.7-0.3
		c-0.2,0-0.4,0.1-1.1,0.7c-0.4,0.4-0.9,0.9-1.4,1.5c-0.1,0.2-0.3,0.3-0.4,0.5l-0.1,0.1c-0.3,0.3-0.8,0.7-1.5,1.2
		c-0.6,0.5-1.3,0.9-2,1.3c-0.7,0.4-1.4,0.7-2.1,1c-0.6,0.3-1.2,0.4-1.6,0.4c-1,0-1.8-0.2-2.2-0.7c-0.4-0.5-0.6-1.2-0.6-2.1v-0.2
		c1-0.8,2.1-1.8,3.4-2.9c1.4-1.3,2.8-2.7,4.2-4.2c1.5-1.5,2.9-3.1,4.2-4.7c1.4-1.6,2.6-3.2,3.7-4.6c1.1-1.5,2-2.8,2.7-4
		c0.7-1.3,1.1-2.3,1.1-3.1c0-1-0.7-1.6-1.8-1.6c-1.2,0-2.6,0.5-4,1.4c-1.4,0.9-2.9,2.1-4.3,3.5c-1.4,1.4-2.8,3.1-4.2,4.9
		c-1.4,1.8-2.6,3.7-3.6,5.5c-1.1,1.9-1.9,3.7-2.6,5.5c-0.6,1.8-1,3.4-1,4.8c0,1.3,0.3,2.4,1,3.2c0.7,0.8,1.8,1.2,3.4,1.2
		c0.7,0,1.6-0.2,2.5-0.5c0.9-0.3,1.7-0.7,2.6-1.2c0.4-0.2,0.7-0.4,1.1-0.7c0,0.7,0.5,1.2,1.2,1.2c0.4,0,0.8-0.1,1.4-0.4
		c0.5-0.2,1.1-0.5,1.7-0.7c0.5-0.2,0.9-0.5,1.3-0.7c-0.1,0.3-0.2,0.6-0.2,0.9c0,0.4,0.1,0.8,0.4,1.2c0.2,0.3,0.6,0.6,1.3,0.6
		c0.4,0,0.9-0.1,1.5-0.3c0.6-0.2,1.1-0.5,1.7-0.9c0.6-0.4,1.2-0.8,1.8-1.2c0.4-0.3,0.7-0.6,1.1-0.9c0.1,0.3,0.3,0.5,0.5,0.7
		c0.4,0.4,1,0.7,1.7,0.7c0.5,0,1.1-0.1,1.6-0.2c-0.1,0.2-0.1,0.5-0.1,0.7c0,1,0.6,1.6,1.8,1.6c0.3,0,0.7-0.1,1.2-0.3
		c0.4-0.2,0.9-0.4,1.4-0.7c0.5-0.3,1-0.6,1.5-0.9c0.3-0.2,0.5-0.3,0.7-0.5c0.1,0.5,0.2,0.9,0.5,1.2c0.4,0.6,1.1,0.9,2.1,0.9
		c0.7,0,1.6-0.2,2.5-0.5c0.9-0.3,1.7-0.6,2.5-1.1c0.2-0.1,0.4-0.2,0.6-0.3c0,0,0,0,0,0.1c0,1.4,1.2,1.9,3.4,0.9
		c0.7-0.3,1.4-0.7,2.1-1.1c0.3-0.2,0.7-0.4,1-0.6c-0.3,0.4-0.7,0.9-1.1,1.4c-0.3,0.4-0.7,1-1.2,1.6c-0.5,0.6-1,1.2-1.5,1.9
		c-2.4,1.5-4.7,2.9-6.7,4.3c-2.1,1.4-4,2.8-5.6,4c-1.6,1.3-2.8,2.5-3.8,3.7c-1,1.2-1.5,2.4-1.5,3.4c0,0.5,0.2,1,0.5,1.3
		c0.3,0.3,0.9,0.5,1.6,0.5c0.6,0,1.4-0.3,2.3-0.8c0.8-0.5,1.7-1.2,2.7-2c1-0.8,2-1.8,3-2.9c1-1.1,2.1-2.2,3.2-3.4
		c1.1-1.2,2.1-2.4,3.2-3.7c1-1.2,2-2.4,2.9-3.6c1.5-0.9,3.1-1.9,4.7-2.8c1.2-0.7,2.5-1.4,3.7-2.1c0,0,0,0.1,0,0.1
		c0,0.9,0.5,1.3,0.8,1.5c0.5,0.3,1.1,0.4,1.8,0.4c0.7,0,1.6-0.1,2.5-0.4c0.9-0.2,1.8-0.5,2.8-0.9c0.9-0.3,1.8-0.7,2.6-1.2
		c0.8-0.4,1.5-0.9,2.1-1.3c0.1-0.1,0.3-0.2,0.4-0.3c0.1-0.1,0.2-0.2,0.3-0.3l1.1-1.1h-2.4L325.3,444.1z M316.7,444.9l0.7-0.6
		c0.6-0.5,1.1-0.9,1.7-1.3c0.5-0.4,0.8-0.4,1-0.5c0,0.1-0.1,0.5-0.4,1.1c-0.3,0.5-0.6,1.1-1.1,1.6c-0.4,0.5-0.9,1-1.4,1.4
		c-0.5,0.3-0.9,0.5-1.3,0.5c0,0-0.1-0.1-0.1-0.4c0-0.3-0.2-0.5-0.4-0.7C315.9,445.7,316.4,445.3,316.7,444.9z M300.2,455.2
		c-0.6,0.8-1.3,1.6-2,2.4c-1.4,1.6-2.7,3.2-4,4.5c-1.3,1.4-2.4,2.5-3.5,3.4c-1.3,1.1-1.9,1.2-2.2,1.2c-0.6,0-0.6-0.2-0.6-0.3
		c0-0.7,0.4-1.4,1.1-2.3c0.8-1,1.8-2,3.2-3.1c1.3-1.1,2.9-2.3,4.8-3.5C298,456.6,299.1,455.9,300.2,455.2z M287.9,447.1
		C287.9,447.1,287.9,447.1,287.9,447.1c0-0.3,0.1-0.6,0.4-1.2c0.3-0.5,0.8-1,1.4-1.5c0.6-0.5,1.3-0.9,2.2-1.3
		c0.7-0.3,1.4-0.4,2.2-0.5c-0.3,0.1-0.6,0.3-0.8,0.6c-0.3,0.4-0.6,0.9-0.8,1.4c-0.2,0.1-0.4,0.3-0.8,0.5c-0.4,0.3-0.8,0.6-1.3,0.9
		c-0.5,0.3-1,0.5-1.4,0.7C288.3,447.1,288,447.1,287.9,447.1C287.9,447.1,287.9,447.1,287.9,447.1z M277.5,421c0.2,0,0.3,0,0.3,0.3
		c0,0.3-0.2,1-0.9,2.3c-0.6,1.1-1.4,2.4-2.5,3.8c-1,1.4-2.2,2.9-3.5,4.4c-1.3,1.5-2.6,3-4,4.5c-1.3,1.4-2.6,2.7-3.9,3.9
		c-0.8,0.7-1.5,1.4-2.2,1.9c0.3-0.9,0.6-1.9,1.1-3c0.7-1.6,1.6-3.3,2.6-4.9c1-1.7,2.2-3.3,3.4-4.9c1.2-1.6,2.4-3,3.6-4.2
		c1.2-1.2,2.3-2.2,3.4-3C276,421.4,276.8,421,277.5,421z"/>
	<path d="M416.4,443.3l-0.4,0.3c-0.3,0.3-0.7,0.6-1.1,0.9c-0.4,0.3-0.9,0.6-1.3,0.9c-1.3,0.8-2.6,1.5-3.9,2.2
		c-0.5,0.3-1.1,0.6-1.6,0.9c0.2-0.3,0.4-0.5,0.6-0.8c0.6-0.8,1.1-1.5,1.4-2c0.1-0.1,0.3-0.4,0.6-0.7c0.3-0.4,0.7-0.8,1-1.2
		c0.4-0.4,0.7-0.8,1-1.2c0.4-0.5,0.6-0.9,0.6-1.2c0-0.2-0.1-0.5-0.2-0.7c-0.2-0.2-0.4-0.4-0.7-0.4c-0.4,0-0.8,0.3-1.5,1
		c-0.2,0.2-0.6,0.6-1.3,1.2c-0.6,0.6-1.4,1.2-2.1,1.7c-0.8,0.6-1.6,1.1-2.4,1.6c-0.8,0.4-1.4,0.6-1.9,0.6c0-0.2,0.1-0.4,0.3-0.7
		c0.2-0.4,0.5-0.8,0.8-1.1c0.3-0.4,0.6-0.7,0.9-1l0.8-0.8c0.2-0.2,0.4-0.4,0.4-0.6c0-0.4-0.3-0.6-0.5-0.6c-0.5-0.3-1.1-0.2-2,0.5
		c-0.4,0.4-0.9,0.9-1.3,1.4c-0.2,0.2-0.3,0.4-0.4,0.6c-0.2,0.2-0.5,0.4-0.8,0.6c-0.6,0.5-1.3,0.9-2,1.3c-0.7,0.4-1.4,0.7-2.1,1
		c-0.6,0.3-1.2,0.4-1.6,0.4c-1,0-1.8-0.2-2.2-0.7c-0.4-0.5-0.6-1.2-0.6-2.1v-0.2c1-0.8,2.1-1.8,3.4-2.9c1.4-1.3,2.8-2.7,4.2-4.2
		c1.4-1.5,2.9-3.1,4.2-4.7c1.4-1.6,2.6-3.2,3.7-4.6c1.1-1.5,2-2.8,2.7-4c0.7-1.3,1.1-2.3,1.1-3.1c0-1-0.7-1.6-1.8-1.6
		c-1.2,0-2.6,0.5-4,1.4c-1.4,0.9-2.9,2.1-4.3,3.5c-1.4,1.4-2.8,3.1-4.2,4.9c-1.4,1.8-2.6,3.7-3.6,5.5c-1.1,1.9-1.9,3.7-2.6,5.5
		c-0.5,1.4-0.8,2.6-0.9,3.8c-0.3,0.3-0.7,0.6-1.1,0.9c-0.6,0.4-1.1,0.8-1.8,1.1c-0.6,0.3-1.3,0.6-1.9,0.8c-1.3,0.4-2.3,0.4-2.9-0.1
		c-0.3-0.2-0.4-0.6-0.5-1.2c0.4-0.4,0.8-0.7,1-1c0.4-0.5,0.6-0.8,0.6-1.1c0-0.2-0.1-0.4-0.3-0.5c0.1,0,0.2,0,0.3,0
		c0.1,0,0.2,0,0.5-0.1c0.4-0.1,0.6-0.4,0.6-0.9c0-0.3-0.1-0.5-0.3-0.7c-0.2-0.2-0.5-0.3-1.5-0.3c-1.4,0-2.6,0.2-3.7,0.7
		c-1.1,0.5-2.1,1.1-2.9,1.8c-0.4,0.3-0.7,0.6-1,0.9c-0.2,0.2-0.5,0.4-0.9,0.6c-0.6,0.4-1.3,0.8-2,1.2c-0.7,0.4-1.4,0.7-2.2,0.9
		c-0.7,0.2-1.3,0.4-1.8,0.4c-0.1,0-0.2,0-0.2-0.5c0-0.1,0.1-0.5,0.6-1.4c0.5-0.8,1-1.6,1.7-2.6c0.7-1,1.5-2.1,2.4-3.3
		c0.9-1.1,1.7-2.3,2.6-3.4l4.1,0.1c1.4,0,2.8,0.1,3.9,0.1c1.2,0,2.2,0.1,3,0.1c1,0,1.3,0.1,1.4,0.1c0.7,0,1.1-0.1,1.3-0.4
		c0.2-0.2,0.4-0.6,0.4-1c0-0.4-0.2-0.7-0.6-0.8c-0.2-0.1-0.5-0.1-0.8-0.1c-1.8,0-3.5,0-5.2,0c-1.4,0-2.8,0-4.1,0h-2l2.3-3
		c0.9-1.2,1.6-2.2,2.2-3c0.3-0.4,0.4-0.8,0.4-1.1c0-0.3-0.1-0.5-0.4-0.7c-0.4-0.2-0.7-0.2-1.3,0.1c-0.3,0.2-0.7,0.5-1,1.1
		c-0.6,0.9-1.4,2-2.2,3.1l-2.5,3.4c-1.5,0-3,0-4.4,0c0.9-1,1.8-2,2.7-3c1.7-2,3.1-3.8,4.3-5.6c1.2-1.7,2.2-3.3,2.8-4.7
		c0.7-1.4,1-2.6,1-3.4c0-0.8-0.4-1.1-0.7-1.3c-0.4-0.2-0.7-0.3-1.1-0.3c-1.7,0-3.6,0.4-5.4,1.3c-1.8,0.9-3.6,2-5.4,3.5
		c-1.7,1.5-3.5,3.2-5.1,5.1c-1.6,1.9-3.2,4-4.6,6.3c-0.4,0.6-0.8,1.3-1.2,1.9h-0.8c-0.2,0-0.4,0-0.6,0.1c-0.2,0-0.3,0.1-0.5,0.2
		c-0.2,0.1-0.4,0.3-0.4,0.6l0,0.1c0,0.2,0.1,0.7,0.8,0.9c0.1,0,0.2,0.1,0.3,0.1c-0.5,1-1,2-1.5,3c-1.1,2.3-1.9,4.5-2.6,6.7l-0.1,0
		c-1.7-0.3-3.3-0.7-5-1.1c-1.7-0.5-3.4-0.9-5-1.3c-1.6-0.4-3.1-0.8-4.5-1.1c-1.4-0.3-2.7-0.5-3.8-0.5c-0.6,0-1.1,0.3-1.4,0.8
		c-0.3,0.5-0.4,1-0.4,1.6c0.1,1.2,0.5,2.2,1.1,3c0.6,0.8,1.3,1.5,2.1,2c0.8,0.5,1.7,0.9,2.6,1.1c0.9,0.2,1.8,0.3,2.7,0.3
		c2,0,3.9-0.3,5.9-0.8c1.7-0.5,3.5-1.1,5.2-1.9c-0.2,0.9-0.4,1.8-0.5,2.7c-0.2,1.1-0.3,2.3-0.3,3.3c0,0.2,0,0.3,0.1,0.5
		c0.1,0.4,0.4,0.6,0.8,0.6c0.7,0,0.8-0.9,0.8-1.2c0.1-1,0.2-2,0.4-3.1c0.2-0.9,0.4-1.8,0.7-2.8c0.8,0.1,1.6,0.2,2.4,0.3
		c2.8,0.3,5.6,0.1,8.2-0.6c0.8-0.2,1.5-0.5,2.2-0.9c0,0.2-0.1,0.3-0.1,0.5c0,0.8,0.4,1.2,0.7,1.4c0.4,0.2,0.8,0.4,1.4,0.4
		c0.7,0,1.6-0.2,2.5-0.5c0.9-0.3,1.7-0.6,2.5-1.1c0.1-0.1,0.2-0.1,0.3-0.2c0,0.1,0,0.2,0,0.3c0,1,0.6,1.6,1.8,1.6
		c0.3,0,0.7-0.1,1.2-0.3c0.4-0.2,0.9-0.4,1.4-0.7c0.5-0.3,1-0.6,1.5-0.9c0.3-0.2,0.5-0.3,0.7-0.5c0.1,0.5,0.2,0.9,0.5,1.2
		c0.4,0.6,1.1,0.9,2.1,0.9c0.7,0,1.6-0.2,2.5-0.5c0.9-0.3,1.7-0.6,2.5-1.1c0.8-0.4,1.5-0.9,2.2-1.3c0,0,0,0,0,0
		c0.1,0.8,0.4,1.6,0.9,2.1c0.7,0.8,1.8,1.2,3.4,1.2c0.7,0,1.6-0.2,2.5-0.5c0.9-0.3,1.7-0.7,2.6-1.2c0.3-0.1,0.5-0.3,0.7-0.5
		c0.1,1.3,1.3,1.7,3.4,0.8c0.7-0.3,1.4-0.7,2.1-1.1c0.3-0.2,0.7-0.4,1-0.6c-0.3,0.4-0.7,0.9-1.1,1.4c-0.3,0.4-0.7,1-1.2,1.6
		c-0.5,0.6-1,1.2-1.5,1.9c-2.4,1.5-4.7,2.9-6.7,4.3c-2.1,1.4-4,2.8-5.6,4c-1.6,1.3-2.8,2.5-3.8,3.7c-1,1.2-1.5,2.4-1.5,3.4
		c0,0.5,0.2,1,0.5,1.3c0.3,0.3,0.9,0.5,1.6,0.5c0.6,0,1.4-0.3,2.3-0.8c0.8-0.5,1.7-1.2,2.7-2c0.9-0.8,2-1.8,3-2.9
		c1-1.1,2.1-2.2,3.2-3.4c1.1-1.2,2.1-2.4,3.2-3.7c1-1.2,2-2.4,2.9-3.6c1.5-0.9,3.1-1.9,4.7-2.8c1.6-0.9,3.2-1.8,4.8-2.8
		c1-0.7,1.8-1.2,2.3-1.7l0.3-0.3L416.4,443.3z M400.5,455.2c-0.6,0.8-1.3,1.6-2,2.4c-1.4,1.6-2.7,3.2-4,4.5
		c-1.3,1.4-2.5,2.5-3.5,3.4c-1.2,1-1.9,1.2-2.2,1.2c-0.6,0-0.6-0.2-0.6-0.3c0-0.7,0.4-1.4,1.1-2.3c0.8-1,1.8-2,3.2-3.1
		c1.3-1.1,2.9-2.3,4.8-3.5C398.3,456.6,399.4,455.9,400.5,455.2z M409.9,421c0.2,0,0.3,0,0.3,0.3c0,0.3-0.2,1-0.9,2.3
		c-0.6,1.1-1.4,2.4-2.5,3.8c-1,1.4-2.2,2.9-3.5,4.4c-1.3,1.5-2.6,3-4,4.5c-1.3,1.4-2.6,2.7-3.9,3.9c-0.8,0.7-1.5,1.4-2.2,1.9
		c0.3-0.9,0.6-1.9,1.1-3c0.7-1.6,1.6-3.3,2.6-4.9c1-1.7,2.2-3.3,3.4-4.9c1.2-1.6,2.4-3,3.6-4.2c1.2-1.2,2.3-2.2,3.4-3
		C408.4,421.4,409.2,421,409.9,421z M376.5,447.1C376.5,447.1,376.5,447.1,376.5,447.1c0-0.3,0.1-0.6,0.4-1.2c0.3-0.5,0.8-1,1.4-1.5
		c0.6-0.5,1.3-0.9,2.2-1.3c0.7-0.3,1.4-0.4,2.2-0.5c-0.3,0.1-0.6,0.3-0.8,0.6c-0.3,0.4-0.6,0.9-0.8,1.4c-0.2,0.1-0.4,0.3-0.8,0.5
		c-0.4,0.3-0.8,0.6-1.3,0.9c-0.5,0.3-1,0.5-1.4,0.7C377,447.1,376.6,447.1,376.5,447.1C376.5,447.1,376.5,447.1,376.5,447.1z
		 M335.1,443.4c0.9,0,2,0.1,3.2,0.4c1.2,0.3,2.6,0.6,4,1c1.4,0.4,2.9,0.8,4.5,1.3c1.1,0.3,2.2,0.6,3.3,0.9c-1.1,0.5-2.2,0.8-3.3,1.1
		c-2.7,0.7-5.4,0.8-7.6,0.3c-0.9-0.2-1.7-0.5-2.4-0.9c-0.6-0.4-1.1-0.8-1.5-1.4c-0.3-0.5-0.5-1.1-0.5-1.7c0-0.3,0-0.6,0.1-0.9
		l-0.5-0.1c0,0,0,0,0,0L335.1,443.4z M379.6,417.4c0.3,0,0.4,0.1,0.4,0.1c0,0,0,0,0,0.1c0,0.2-0.1,0.9-0.9,2.3
		c-0.6,1.2-1.5,2.6-2.7,4.2c-1.2,1.6-2.6,3.4-4.1,5.2c-1.3,1.6-2.8,3.1-4.3,4.7c-0.3,0-0.7,0-1,0c-1.1,0-2.1,0-3.2,0
		c-1,0-1.9,0-2.7,0c0.4-0.6,0.8-1.2,1.2-1.8c1.4-2.1,3-4,4.6-5.8c1.6-1.8,3.2-3.4,4.7-4.7c1.5-1.3,3-2.4,4.5-3.1
		C377.3,417.8,378.5,417.4,379.6,417.4z M361.8,435.9c1.2,0,2.6,0,4.1,0c-1.6,1.5-3.2,3-5,4.4c-1.7,1.4-3.5,2.7-5.3,3.8
		c0.7-1.8,1.6-3.6,2.5-5.4c0.5-0.9,1-1.8,1.6-2.7C360.4,435.9,361,435.9,361.8,435.9z M361.6,442.3c2.3-1.7,4.4-3.5,6.4-5.4
		c0.3-0.3,0.6-0.6,1-0.9c0.5,0,1,0,1.6,0c1,0,2.1,0,3.3,0c-0.7,0.9-1.4,1.9-2.1,2.8c-0.9,1.2-1.6,2.3-2.3,3.4
		c-0.4,0.6-0.7,1.1-1,1.6c-1.1,0.9-2.3,1.6-3.7,2c-2.3,0.6-4.8,0.8-7.5,0.5c-0.5-0.1-1-0.1-1.5-0.2
		C357.7,444.9,359.7,443.7,361.6,442.3z"/>
</g>
</svg>
