<?xml version="1.0" encoding="utf-8"?>
<!-- Generator: Adobe Illustrator 24.2.0, SVG Export Plug-In . SVG Version: 6.00 Build 0)  -->
<svg version="1.1" id="Layer_1" xmlns="http://www.w3.org/2000/svg" xmlns:xlink="http://www.w3.org/1999/xlink" x="0px" y="0px"
	 viewBox="0 0 595.3 841.9" style="enable-background:new 0 0 595.3 841.9;" xml:space="preserve">
<path d="M297.9,430.1c0.5-0.9,0.8-1.5,1.3-2c22.4-22.4,44.8-44.9,67.2-67.3c9-9.1,22.6-10.2,32.4-2.8c12.1,9.1,13.3,26.4,2.6,37.1
	c-22.6,22.6-45.2,45.3-67.8,67.9c-6.1,6.1-12.2,12.2-18.3,18.3c-9.9,9.9-25.1,10.1-35.1,0.1c-28.8-28.8-57.6-57.6-86.3-86.4
	c-6.8-6.9-9-15.3-6.1-24.6c2.9-9.3,9.5-15.1,19.1-16.9c8.3-1.5,15.7,0.9,21.7,6.9c21.6,21.6,43.2,43.2,64.7,64.8
	C294.7,426.6,296.1,428.1,297.9,430.1z"/>
</svg>
