<?xml version="1.0" encoding="utf-8"?>
<!-- Generator: Adobe Illustrator 24.2.0, SVG Export Plug-In . SVG Version: 6.00 Build 0)  -->
<svg version="1.1" id="Layer_1" xmlns="http://www.w3.org/2000/svg" xmlns:xlink="http://www.w3.org/1999/xlink" x="0px" y="0px"
	 viewBox="0 0 595.3 841.9" style="enable-background:new 0 0 595.3 841.9;" xml:space="preserve">
<path d="M480.7,442.4c-3.4,0-5.3,0-7.2,0c-125.9,0-251.8,0-377.7,0c-2,0-4,0.1-6-0.1c-4.9-0.4-8.2-4-8.2-8.9c0-4.9,3.3-8.5,8.2-9
	c2-0.2,4-0.1,6-0.1c125.9,0,251.8,0,377.7,0c1.9,0,3.9,0,7,0c-2-2.2-3.2-3.7-4.6-5c-21.4-22.3-42.9-44.6-64.3-66.9
	c-6.3-6.6-7.1-11.5-2.4-15.8c4.5-4.3,9.2-3.3,15.4,3.1c28.2,29.4,56.5,58.8,84.7,88.1c1.6,1.7,3.2,3.4,5.1,5.4
	c-1,1.2-1.8,2.4-2.8,3.4c-29.5,30.7-59,61.4-88.5,92.1c-2.8,2.9-6,5.6-10,3.6c-2.7-1.3-6-4.2-6.3-6.7c-0.4-3,1.3-7.2,3.5-9.5
	c17.3-18.5,34.9-36.6,52.4-54.9C468.3,455.2,473.9,449.4,480.7,442.4z"/>
</svg>
