<?xml version="1.0" encoding="utf-8"?>
<!-- Generator: Adobe Illustrator 24.2.0, SVG Export Plug-In . SVG Version: 6.00 Build 0)  -->
<svg version="1.1" id="Layer_1" xmlns="http://www.w3.org/2000/svg" xmlns:xlink="http://www.w3.org/1999/xlink" x="0px" y="0px"
	 viewBox="0 0 595.3 841.9" style="enable-background:new 0 0 595.3 841.9;" xml:space="preserve">
<path d="M452.6,326.3c-2-0.9-4.4-1.3-6.6-1.3c-90-0.1-179.9-0.1-269.9,0c-2.3,0-3.2-0.6-3.8-2.9c-2.8-11.1-5.8-22.1-8.8-33.1
	c-1.4-5.4-4.8-8-10.3-8c-6.8,0-13.5,0-20.3,0c-12.4,0-24.8-0.1-37.2,0c-7.9,0.1-12.4,8-8.6,14.9c2.1,3.7,5.5,5.1,9.6,5.1
	c15.7,0,31.3,0,47,0c1.7,0,2.4,0.4,2.9,2.2c7,26.6,14.2,53.1,21.3,79.7c9.1,34.1,18.3,68.2,27.5,102.3c2.9,10.7,5.8,21.4,8.6,32.1
	c1.8,6.9,4.8,9.1,12.1,9.1c15.4,0,30.7,0,46.1,0c-7.7,0.6-14.9,3.9-20.6,9.3c-6.4,6.2-10,14.5-10.1,23.3c-0.1,9,3.3,17.5,9.5,23.9
	c6.2,6.4,14.6,9.9,23.7,10c0.1,0,0.2,0,0.3,0c8.8,0,17.1-3.4,23.3-9.6c6.3-6.2,9.8-14.6,9.9-23.6c0.2-17.1-13.6-31.9-30.6-33.3
	c25.9,0,51.8,0,77.7,0c6.7,0,13.3-0.1,20-0.1c-8.8,0.1-17,3.7-23.2,10c-6.2,6.4-9.6,14.7-9.5,23.6c0.1,8.9,3.6,17.3,9.9,23.5
	c6.2,6.1,14.5,9.5,23.3,9.5c0.1,0,0.2,0,0.3,0c18.7-0.2,33.2-15,33.1-33.8c-0.1-8.8-3.6-17-10-23.3c-6.3-6.1-14.5-9.5-23.2-9.5
	c1.7,0,3.5,0,5.2,0c14.9,0,29.7,0.1,44.6,0.1c4,0,6.9-2.3,8.5-5.9c2.9-6.9-1.9-14-9.6-14c-14.1,0-28.1,0-42.2,0
	c-49.2,0-98.5,0-147.7,0c-0.9,0-1.7,0-2.7,0c-2.1-7.7-4.1-15.3-6.2-22.9c0.6-0.2,1-0.4,1.3-0.4c5.7-0.7,11.3-1.4,17-2.1
	c11.4-1.4,22.7-2.7,34.1-4.1c11-1.3,22.1-2.7,33.1-4c11-1.3,22.1-2.6,33.1-4c13.9-1.7,27.7-3.4,41.6-5.1c13.6-1.7,27.3-3.4,40.9-4.9
	c6.2-0.7,9.3-3.9,10.9-9.8c9.8-37.3,19.9-74.5,29.8-111.7C458.6,332.9,456.7,328.2,452.6,326.3z"/>
</svg>
