<?xml version="1.0" encoding="utf-8"?>
<!-- Generator: Adobe Illustrator 24.2.0, SVG Export Plug-In . SVG Version: 6.00 Build 0)  -->
<svg version="1.1" id="Layer_1" xmlns="http://www.w3.org/2000/svg" xmlns:xlink="http://www.w3.org/1999/xlink" x="0px" y="0px"
	 viewBox="0 0 595.3 841.9" style="enable-background:new 0 0 595.3 841.9;" xml:space="preserve">
<g>
	<path d="M339.3,342.1c-3-1.6-5.7-3.7-8.7-5.4c-3.2-1.7-6.3-3.4-9.6-4.7c-0.3-0.1-0.7-0.1-0.8-0.7c0.2,0,0.3,0,0.5,0
		c3,1,5.9,2.1,8.8,3.3c3,1.3,5.9,2.8,8.8,4.3c0.3,0.2,0.7,0.7,1,0.1c0.2-0.4,0.4-1-0.4-1.4c-1.8-0.8-3.6-1.9-5.4-2.7
		c-6.8-3.2-13.9-5.7-21.2-7.6c-6.1-1.6-12.2-2.8-18.3-3.8c-1.9-0.3-3.9-0.4-5.7-0.9c-2.4,0-4.8,0-7.2,0c-2.5,0.5-4.9,0.9-7.4,0.7
		c-7.2-0.6-14.3,0-21.3,1.7c-5.6,1.4-10.9,3.6-15.8,6.6c-3.4,2-6.6,4.3-9.5,6.9c-3.1,2.7-6,5.7-8.7,8.8c-2.7,3.1-4.9,6.5-7.7,9.6
		c-4.7,5.2-8.8,11-12.2,17.2c-3.8,6.9-6.8,14.1-8.8,21.7c-1.7,6.1-2.5,12.4-3.6,18.6c-1.2,7-1.7,14-1.2,21.1
		c0.4,6.7,1.5,13.4,3.3,19.9c1.2,4.4,2.6,8.7,4.3,12.9c1.9,4.8,4.2,9.5,6.9,13.9c2.6,4.2,5.5,8.1,8.8,11.7c3.6,4,7.7,7.5,12.1,10.6
		c4.2,2.9,8.7,5.3,13.6,7c4.4,1.5,8.7,3.6,13.2,4.9c5.4,1.6,11,2.6,16.7,2.8c5.5,0.2,11-0.5,16.6-0.3c5.5,0.2,10.9-0.2,16.3-0.9
		c5.9-0.8,11.6-2.2,17.3-4c2.5-0.8,4.9-1.8,7.4-2.8c3.4-1.4,6.7-3.1,9.9-4.9c0.6-0.3,0.4-1,0.3-1.3c-0.2-0.4-0.6-0.1-0.9,0.1
		c-1.6,0.8-3.1,1.8-4.7,2.6c-5.1,2.4-10.3,4.5-15.7,6.1c-5.7,1.7-11.5,2.7-17.4,3.3c-2.3,0.2-4.5,0.3-6.8,0.5
		c4.1-1.2,8.2-2.1,12.3-3.1c6-1.5,11.8-3.3,17.6-5.3c3.7-1.3,7.2-2.9,10.8-4.5c1.7-0.8,3.3-1.6,4.9-2.4c0.5-0.3,0.6-0.8,0.3-1.2
		c-0.2-0.5-0.6-0.1-0.9,0.1c-1.8,0.9-3.7,1.7-5.5,2.6c-4.8,2.2-9.7,4.1-14.6,5.8c-0.5,0.2-0.9,0.3-1.4,0.1c1.6-0.7,3.2-1.2,4.8-1.8
		c3.8-1.4,7.6-3.1,11.3-4.8c1.4-0.6,2.7-1.4,4.1-2c0.7-0.3,0.7-1,0.5-1.4c-0.3-0.6-0.7,0-1,0.2c-1.1,0.5-2.2,1.1-3.3,1.6
		c-4.6,2.1-9.2,4.1-14,5.8c-7.6,2.6-15.4,4.6-23.4,5.8c-4.3,0.6-8.7,1.1-13.1,1.4c-2.6,0.1-5.3,0.4-7.9,0.4c-3.1,0-6.2,0.5-9.3-0.4
		c-6.4-1.9-12.5-4.1-18.4-7.2c-5.8-3-11.2-6.5-16.3-10.5c-4.3-3.4-8.2-7.2-11.8-11.3c-4.6-5.2-8.6-10.7-12-16.8
		c-3.7-6.7-6.7-13.6-8.7-21c-1.2-4.4-2.4-8.8-2.6-13.3c-0.3-6.2,0.3-12.4,1.3-18.6c1.4-8.1,3.7-16,6.7-23.6
		c1.5-3.7,2.9-7.5,4.3-11.3c1.7-4.5,3.9-8.8,6.8-12.6c2.3-3.1,4.7-6.1,7.1-9.2c2.8-3.5,5.8-6.8,9-9.9c2.8-2.7,5.8-5.3,8.9-7.7
		c3.5-2.7,7.1-5.2,11.2-7c5.5-2.4,11.2-4.5,17.1-5.9c4.6-1.1,9.3-1.9,14-2.3c3.6-0.3,7.2-0.7,10.8,0.1c4.5,1,8.9,1.9,13.4,3
		c5.5,1.4,10.9,3,16.2,5.1c7.1,2.7,13.9,6.1,20.5,9.9c0.3,0.2,0.6,0.8,1,0.2c0.3-0.4,0.2-1-0.4-1.3c-1.4-0.8-2.7-1.7-4.1-2.4
		c-5.3-2.9-10.8-5.4-16.5-7.6c-6.6-2.5-13.3-4.5-20.2-6.1c-0.7-0.2-1.4-0.4-2.2-0.6c0.8-0.3,1.4,0,2,0.1c6.7,0.8,13.3,2.3,19.6,4.5
		c6.8,2.4,13.3,5.4,19.4,9.3c1.5,1,3,2.1,4.6,3c0.3,0.2,0.9,0.8,1.3,0.1C340,342.9,339.9,342.4,339.3,342.1z M207.8,364.8
		c0-0.1,0-0.1,0.1-0.2C207.9,364.6,207.8,364.7,207.8,364.8c-0.2,0.1-0.2,0.2-0.2,0.3C207.6,365,207.7,364.8,207.8,364.8z
		 M207.6,365.2c0,0,0-0.1,0-0.1C207.6,365.2,207.6,365.2,207.6,365.2L207.6,365.2z M227.4,507.3L227.4,507.3
		C227.5,507.3,227.5,507.2,227.4,507.3C227.5,507.2,227.5,507.3,227.4,507.3z M228.2,507.7C228.2,507.7,228.2,507.7,228.2,507.7
		C228.2,507.7,228.2,507.7,228.2,507.7C228.2,507.7,228.2,507.7,228.2,507.7z M228.2,507.7C228.2,507.7,228.2,507.7,228.2,507.7
		c0.1,0,0.2,0,0.3,0C228.4,507.8,228.3,507.8,228.2,507.7z M247.8,515.2C247.8,515.2,247.9,515.2,247.8,515.2
		C247.9,515.2,247.8,515.2,247.8,515.2L247.8,515.2z M247.8,515.3C247.9,515.3,247.9,515.3,247.8,515.3L247.8,515.3
		C247.9,515.3,247.9,515.3,247.8,515.3z M308.6,509.7c-1.4,1-3,1.2-4.5,1.7c-6.2,1.8-12.5,3.3-18.9,4.6c-2.7,0.5-5.4,1-8.1,1.3
		c-2.1,0.2-4.1-0.3-6.2-0.5c-1-0.1-1.9-0.3-2.9-0.5C281.7,515.5,295.3,513.9,308.6,509.7z M267.1,517.8c-6.1,0.4-12.3-0.5-18.5-2.3
		C254.8,516.2,261.3,515.7,267.1,517.8z M198.5,469.3c2.1,3.8,4.4,7.4,7.1,10.9c2.2,3,4.7,5.8,7.3,8.5c3.1,3.2,6.4,6.2,9.8,9
		c3.9,3.1,8,5.9,12.3,8.4c4.1,2.4,8.4,4.4,12.8,6.1c1.7,0.7,3.4,1.2,5.1,2c-1.4,0.2-2.7-0.1-4-0.3c-3.6-0.6-7.4-1-10.8-2.4
		c-3.8-1.5-7.3-3.8-10.6-6.1c-2.5-1.7-4.9-3.6-7.1-5.6c-2.6-2.3-5-4.7-7.3-7.3c-2.5-2.7-4.7-5.6-6.9-8.5c-2.6-3.5-4.9-7.1-7.1-10.9
		c-1.6-2.8-3.2-5.7-4.4-8.7c-1.6-3.7-2.9-7.6-3.9-11.5c-0.1-0.3-0.1-0.7-0.1-1c0.7,1.2,1.1,2.5,1.5,3.8
		C193.9,460.3,196,464.9,198.5,469.3z M189.1,450.2c0.7,3.1,1.6,6.2,2.6,9.2c1.4,4.4,3.3,8.6,5.5,12.6c2.2,4.1,4.7,8,7.4,11.8
		c2.6,3.7,5.4,7.2,8.4,10.5c1.8,2,3.7,3.8,5.7,5.7c2.7,2.5,5.6,4.7,8.5,6.9c-0.1,0.1-0.1,0.1-0.2,0.2c0,0,0,0,0,0
		c-1.9-0.6-3.5-1.8-5.2-2.9c-3.6-2.2-7-4.9-10.1-7.8c-3.1-2.9-5.8-6.2-8.4-9.6c-3.7-5-6.7-10.3-9.2-16c-3.7-8.6-6.5-17.4-7.9-26.7
		c-1-6.3-1.2-12.6-0.9-19c0.1-1.8,0.3-3.5,0.6-5.3c0.2,2.4,0.1,4.9,0.3,7.3c0.2,3.5,0.8,6.9,1.1,10.3
		C187.6,441.8,188.3,446,189.1,450.2z M187.2,427.7c-2.1-16.8,3.5-31.7,11.4-46C192.8,396.5,187.6,411.5,187.2,427.7z M203.3,371.2
		c-1.7,3.1-3.5,6.1-5.3,9.2c-2.9,5.1-5.4,10.5-7.3,16c-0.2,0.5-0.4,1-0.6,1.5c3.1-13.1,9-24.8,17.3-35.5c0.4,0.4,0,0.6-0.1,0.8
		C205.9,366,204.7,368.6,203.3,371.2z M207.6,365.3L207.6,365.3c0,0-0.1,0.1-0.1,0.1C207.5,365.3,207.5,365.3,207.6,365.3z
		 M225.5,345.2c-5.3,4.7-10,9.9-14.2,15.5c-1,1.3-2.1,2.6-3.2,3.9c0,0,0,0,0,0l0,0c0-0.9,0.6-1.5,0.9-2.1c1-1.7,2-3.4,3-5.1
		c1.6-2.9,4.2-5,6.6-7.2c2.6-2.4,5.3-4.6,8.1-6.6c0.1,0,0.1-0.1,0.4,0C226.6,344.1,226,344.6,225.5,345.2z M218.6,348.5
		c2.1-3.2,12.5-12.9,20.6-17.1c9.3-4.9,19.5-6.6,26.1-6.8C247.5,328.3,232.6,337.5,218.6,348.5z M315.6,329.8
		C315.6,329.8,315.6,329.8,315.6,329.8c0.1,0,0.1,0,0.2,0C315.7,329.8,315.7,329.8,315.6,329.8z M319.1,331.1
		c-0.9-0.3-1.9-0.4-2.8-1c1,0,2,0.5,2.9,0.8c0.2,0.1,0.6,0.1,0.5,0.3C319.6,331.5,319.3,331.2,319.1,331.1z"/>
	<path d="M408.9,401.6c-1.8,0.5-3.3,1.5-4.9,2.6c-2.8,1.9-5.7,3.6-8.7,5.3c-3.4,1.9-6.1,4.6-8.4,7.7c-1.7,2.2-3.2,4.6-4.9,6.8
		c-0.7,0.9-1.3,1.8-2.5,2.4c0-0.2-0.1-0.3-0.1-0.4c0-5.5-0.2-11.1-0.9-16.6c-0.1-0.4,0-0.8,0.4-1.1c3.1-2.4,5.9-5.1,8.5-8
		c2.2-2.6,4.1-5.5,5.8-8.5c2.8-5.1,4.5-10.5,5.8-16.1c0.4-1.7,1-3.4,0.8-5.1c-0.5,0.4-1.1,0.8-1.5,1.3c-2.1,2.4-4.4,4.5-7.3,6.1
		c-1.8,1-3.3,2.3-4.3,4.2c-1.2,2.2-1.7,4.6-2.9,6.8c-1.3,2.2-2.4,4.6-3.5,6.9c-0.8,1.9-1.9,3.6-3,5.6c-0.8-3.1-1.4-5.8-2.1-8.6
		c-0.1-0.5,0.2-0.6,0.5-0.8c1-0.7,1.8-1.6,2.6-2.4c1.7-1.8,3.1-3.9,3.7-6.3c1.1-5,1.8-10,2.1-15.1c0.1-1.1,0.5-2.2,0.1-3.4
		c-0.2,0.1-0.3,0.1-0.4,0.2c-2.4,3.4-5.1,6.5-7.3,10c-1.3,2.1-2.7,4.3-2.7,7c0,1.2-0.3,2.6-0.9,3.8c-0.5-1-0.8-1.9-1.3-2.8
		c-1.7-3.1-3.3-6.3-4.7-9.5c-1-2.4-2.5-4.9-0.5-7.6c0.2-0.2,0.2-0.6,0.3-0.9c0.8-2.7,0.5-5.4,0.5-8.1c0-1.3-0.2-2.5-0.7-3.6
		c-1-2.1-2-4.2-3-6.2c-0.4-0.8-0.5-1.8-1.2-2.6c-0.2,2.1-0.4,4-1.1,5.8c-1.4,3.8-2.2,7.6-1.3,11.7c0,0.2,0,0.4,0,0.6
		c-1.3-0.7-2.6-1.4-3.9-2c-3.3-1.6-7-1.9-10.5-2.9c-0.5-0.1-0.7,0-0.6,0.5c0.1,0.3,0.2,0.7,0.3,1c2,4.5,5.3,7.9,9.6,10.3
		c3.5,2,7.1,3.6,10.9,4.8c0.4,0.1,0.6,0.4,0.7,0.7c1.5,3.1,3.1,6.2,4.6,9.3c1.9,3.8,3,8,4.1,12.1c0.6,2.3,1,4.6,1.5,6.8
		c-0.5,0.2-0.7-0.1-0.9-0.3c-2.5-1.9-4.3-4.4-6.3-6.7c-1.8-2.1-3.7-4.1-6-5.7c-2.2-1.5-4.6-2.5-7-3.6c-2.8-1.2-5.5-2.6-8.3-3.9
		c-0.2,0.6,0,1,0.2,1.5c1.3,3.5,3.4,6.6,5.7,9.6c2,2.7,4.5,4.7,7.6,6c1.8,0.7,3.5,1.7,5.2,2.7c3.3,1.9,6.5,4,10.1,5.5
		c0.6,0.3,0.7,0.7,0.7,1.2c1,5.8,1.1,11.7,0.9,17.6c0,0.3,0.1,0.6-0.2,0.9c-0.2-0.3-0.4-0.5-0.6-0.8c-2.4-4.3-5.7-7.7-9.6-10.5
		c-1.8-1.3-3.9-2.1-5.7-3.5c-1.4-1-2.6-2.2-4-3.3c-0.3,0.6-0.1,1,0,1.5c0.4,1.3,0.9,2.6,1.4,3.8c1.4,3.4,3,6.7,5.5,9.4
		c3.3,3.6,7.6,5.6,11.9,7.6c0.8,0.4,1.1,0.7,1,1.6c-0.5,3.3-0.9,6.5-1.4,9.8c-0.3,2-0.7,3.9-1.1,6.2c-2.4-3.8-4.8-7.1-7.5-10.3
		c-2-2.5-4.1-4.9-6.5-7c-3.9-3.3-8.5-5.5-12.8-8.2c-0.9-0.5-1.7-1.2-2.9-1.5c0,0.4,0,0.7,0,1c0.6,3.5,2,6.7,4.6,9.2
		c3.9,3.9,8.3,7.1,13.1,9.7c3.9,2.2,7.5,4.6,10.7,7.7c0.8,0.8,1,1.6,0.7,2.7c-0.7,2.5-1.8,4.9-3.1,7.1c-0.9,1.5-1.5,3.2-2.6,4.5
		c-1.5,1.8-2.8,3.7-3.9,5.9c-0.1,0.3-0.2,0.6-0.7,0.6c-0.9-3.4-1.9-6.7-3-10c-1.1-3.4-3-6.3-5.7-8.9c0,0.7,0,1.1,0,1.4
		c0.4,3.4,0.8,6.9,1.1,10.3c0.2,2.4,0.8,4.5,2.3,6.4c1,1.2,2.1,2.2,3.3,3.1c0.7,0.4,0.6,0.7,0.2,1.3c-1.7,2.7-3.9,5-5.6,7.7
		c-2.4,3.9-6,6.9-9.4,9.9c-0.8,0.7-1.7,1.4-2.6,2.2c-0.4,0.4-0.5,0.9-0.2,1.3c0.3,0.4,0.6-0.1,0.9-0.3c1.9-1.4,3.7-3,5.5-4.6
		c2.9-2.7,5.6-5.7,7.7-9.1c1.1-1.8,2.5-3.4,3.8-5c1.8-2.4,3-5.2,4.6-7.7c0.8-1.2,1.4-2.5,2.6-3.2c1-0.6,2.1-0.9,3.2-1.3
		c3.5-1.4,6.8-3.1,9.9-5.3c4.4-3,8.2-6.7,11.7-10.6c2.6-2.9,4.8-6.2,6.4-9.7c0.2-0.4,0.2-0.7,0-1c-0.3-0.3-0.6,0.1-0.8,0.2
		c-2.8,1.6-5.6,3.2-8.5,4.6c-3.7,1.7-7,3.8-9.7,6.8c-2.2,2.4-4.1,5.1-6,7.7c-0.9,1.3-2,2.5-3.3,3.5c-0.2-0.3-0.1-0.4,0-0.6
		c1.4-2.3,2.4-4.8,2.9-7.4c0.3-1.8,0.7-3.6,1-5.4c0.1-0.6,0.4-1,0.9-1.3c4.3-3,8.6-6.1,12.7-9.5c2.9-2.4,5.1-5.2,6-8.9
		c0.9-3.4,1.4-6.8,1.8-10.2c0.1-0.5,0.2-0.9,0.7-1.3c1.9-1.6,3.6-3.3,5.2-5.3c1.8-2.4,3.5-4.8,5.3-7.2c0.3-0.4,0.5-0.9,1.1-0.8
		c0-0.5,0-1,0-1.4C410.2,401.4,409.5,401.4,408.9,401.6z M361.6,351.7c0.5-1.2,0.8-2.5,1.2-3.7c4,5.9,5.2,12.1,2.1,19.1
		c-1.4-1.6-2.5-2.9-3.9-4c-0.2-0.2-0.2-0.4-0.3-0.6C360.1,358.8,360.3,355.2,361.6,351.7z M346.8,359.4c5.7,0.7,10.8,2.5,15.1,6.3
		c2,1.8,3.1,4.1,3.6,6.8C358.6,370.4,349.5,365.7,346.8,359.4z M374.9,390.9c-1.4-2.2-0.9-4.4-0.7-6.7c0.5-5.6,3.8-9.7,7-13.8
		c0.6-0.8,1.1-1.7,2.2-2.6c-0.3,3.3-0.7,6.2-1.1,9.2c-0.3,2.4-0.7,4.8-1.6,7.1C379.5,386.9,377.2,388.9,374.9,390.9z M375.7,406
		c-4.4-2.2-8.4-5-12.8-7.1c-2.4-1.1-4.8-2.2-6.6-4.2c-2.5-2.7-4.5-5.8-6.4-9.4c1.9,0.4,3.2,1.4,4.6,2c3.1,1.4,6.3,2.5,9,4.5
		c2.1,1.6,4,3.5,5.7,5.6c2.2,2.7,4.5,5.5,7.4,7.5c0.4,0.3,0.4,0.3,0.6,1.7C376.7,406.6,376.2,406.3,375.7,406z M378,406.1
		c-0.9-2.4,0.3-4.3,1.3-6.4c2.6-5.3,5.7-10.4,7.6-16c0.7-2.1,2.3-3.5,4.2-4.5c2.1-1.2,3.9-2.5,5.6-4.2c0.4-0.4,0.9-0.8,1.4-1.2
		c0.1,0,0.1,0.1,0.2,0.1l0,0c-0.7,4.5-2.2,8.9-4,13.1c-1.9,4.4-4.4,8.4-7.5,12c-2.3,2.8-5,5.2-7.8,7.5
		C378.2,407,378.3,406.7,378,406.1z M359.7,438.6c-3.8-2.8-7.8-5.4-10.4-9.5c-0.8-1.2-1.4-2.5-1.7-3.9c0,0,0.1-0.1,0.1-0.1h0
		c3,1.6,5.9,3.5,8.8,5.2c4.6,2.7,8.3,6.4,11.6,10.6c1.3,1.7,2.7,3.2,3.8,5c0.2,0.1,0.3,0.3,0.2,0.5c0,0,0,0,0,0l0,0l0,0
		c0-0.2,0-0.4-0.2-0.5c-0.1,0.1-0.1,0.1-0.2,0.2c0,0,0,0,0,0c-1.6-1-3.1-2.1-4.7-3.1C364.6,441.5,362,440.2,359.7,438.6z
		 M364.2,472.5c-0.3,0.2-0.6-0.1-0.9-0.3c-3-2.3-5.1-5-5.2-9c0-2.4-0.5-4.7-0.8-7.1c0-0.3-0.2-0.5,0-0.9c1.8,2,3.1,4.3,3.9,6.9
		c1,3.2,1.9,6.4,2.8,9.6C364.2,471.9,364.6,472.2,364.2,472.5z M374.7,461.4c1.6-1.5,3-3.3,4.2-5.1c3.5-5.1,7.6-9.5,13.5-12
		c2.4-1,4.6-2.3,6.9-3.4c0.1,0.1,0.1,0.1,0.2,0.2l0,0c-1.7,3.3-4.1,6-6.7,8.7c-2.7,2.8-5.5,5.4-8.7,7.7c-3.6,2.6-7.4,4.7-11.5,6.1
		l0,0C373,462.5,374,462.1,374.7,461.4z M373.2,428.6c-2.9-1.5-5.5-3.3-7.7-5.8c-1.7-2-2.9-4.3-4-6.6c-0.5-1-1.1-1.9-1.2-3.1
		c2.3,1.8,4.9,3.1,7.3,4.6c3.4,2.1,6,5,8.3,8.3c1.1,1.5,1.9,3.1,2.7,5C376.5,430.5,374.9,429.5,373.2,428.6z M377.9,443.4
		c0.8-4.5,1.3-9,1.3-13.5c0-0.4,0.1-0.7,0.4-0.9c3.3-2,6.6-4.1,9.9-6.2c0.1,0,0.2,0,0.2,0c0.3,0.3,0,0.6-0.1,0.9
		c-2.4,5.2-4.7,10.5-7.7,15.4C381,440.7,379.5,442.1,377.9,443.4z M397,422.8c-0.5,3-1.2,6-2.9,8.6c-1.3,2-3.3,3.4-5.1,5
		c-2.2,1.8-4.4,3.6-6.8,5.1c-0.1-0.1-0.1-0.1-0.2-0.2c0,0,0,0,0,0c0.4-1.3,1.2-2.3,1.9-3.4c2.4-4.1,4.2-8.4,6.2-12.7
		c1.5-3.4,4-5.7,7.1-7.5c0.1-0.1,0.2-0.1,0.5-0.1C397.8,419.4,397.2,421.1,397,422.8z M382.1,426c0.6-1.4,1.5-2.2,2.2-3.2
		c1.8-2.5,3.5-5,5.6-7.3c1.5-1.6,3.1-3,4.9-4.1c3.5-2.2,7-4.3,10.4-6.5c1-0.6,1.8-1.4,2.9-1.5C402.5,414.3,392.1,419.7,382.1,426z"
		/>
	<path d="M309.7,465.4c-4.5,2.8-8.9,5.5-13,8.9c-1.9,1.6-3.8,3.2-4.7,5.6c-0.3,0.7-0.7,1.5,0,2.2c0.7,0.7,1.6,0.8,2.5,0.4
		c2.3-0.8,4-2.5,5.7-4.1c3.4-3.2,6.3-6.7,9.3-10.2c1.1-1.3,1.9-2.8,3.5-3.7c3.7-2.2,7.6-4.1,11.1-6.6c0.3-0.2,0.7-0.4,0.4-0.9
		c-0.3-0.5-0.7-0.3-1,0c-2.7,2.3-6,3.7-9,5.6c-0.1-0.1-0.1-0.1-0.2-0.2c1.1-1.7,2.3-3.4,3.6-5c0.7-0.8,1.3-1.6,2-2.4
		c0.3-0.4,0.8-1,0.2-1.5c-0.6-0.4-1.1,0.1-1.4,0.5c-1.2,1.3-2.5,2.4-3.9,3.4c-1.2,0.9-2.4,1.9-3.9,2.2c-0.4,0.1-1,0.5-1.3,0
		c-0.3-0.4,0.1-0.9,0.4-1.3c0.6-1.1,1.6-1.9,2.4-2.8c0.2-0.2,0.5-0.4,0.3-0.7c-0.2-0.3-0.6-0.3-0.9-0.2c-0.7,0.2-1.1,0.7-1.6,1.2
		c-2,2.5-4.7,4-7.7,5c-1.6,0.5-3.3-0.2-3.9-1.4c-0.7-1.3-0.4-2.2,1-3.4c6-5.2,11.4-11,16.1-17.4c1.3-1.8,2.7-3.6,3.3-5.8
		c0.5-1.7-0.2-2.5-1.9-2.3c-2.8,0.3-4.8,2-6.8,3.8c-4.2,3.8-7.5,8.2-10.2,13.1c-1.4,2.6-2.7,5.3-3.2,8.3c-0.1,0.9-0.5,1.5-1.2,2
		c-0.9,0.6-1.9,1.3-2.9,1.7c-1.2,0.5-2.4,1-3.7,0.9c-0.8-0.1-1.4-0.4-1.7-1.2c-0.3-0.7-0.1-1.2,0.5-1.7c0.3-0.3,0.6-0.7,0.8-1
		c0.2-0.2,0.3-0.4,0.1-0.6c-0.2-0.2-0.4-0.2-0.7-0.2c-0.7,0.2-1.3,0.6-1.6,1.2c-1.1,2.1-3.1,2.8-5.1,3.7c-0.7,0.3-1.1-0.1-0.9-0.8
		c0.1-0.4,0.4-0.9,0.7-1.3c1.6-2.1,3.8-3.2,6.5-3.4c0.5,0,1,0,1.6,0c0.4,0,0.8-0.1,0.8-0.5c0.1-0.4-0.3-0.7-0.6-0.8
		c-0.3-0.1-0.6-0.1-0.8-0.1c-2.9,0-5.3,1-7.4,2.9c-1.9,1.8-4.2,3-6.7,3.8c-0.7,0.2-1.6,0.7-2.1,0c-0.6-0.8,0.1-1.5,0.5-2.2
		c2-3.4,4.5-6.4,6.8-9.5c0.5-0.7,1-0.9,1.8-0.9c4.1,0.1,8.2,0.2,12.3,0.3c0.7,0,1.7,0.1,1.6-0.9c0-0.9-1-0.7-1.6-0.7
		c-3.7,0-7.4,0-11.1-0.1c-0.4,0-0.8,0.2-1.2-0.2c0.3-0.3,0.5-0.7,0.8-1c1.3-1.8,2.7-3.6,4-5.4c0.3-0.5,1.3-1.2,0.3-1.8
		c-0.8-0.4-1.4,0.5-1.8,1c-1.6,2.4-3.3,4.6-4.9,6.9c-0.2,0.2-0.3,0.5-0.6,0.5c-1.8,0-3.5,0-5.6,0c2.5-2.7,4.8-5.2,6.8-7.9
		c2.1-2.9,4.2-5.8,5.3-9.3c0.6-1.9-0.1-2.8-2.1-2.6c-1.9,0.2-3.7,0.7-5.4,1.5c-3.7,1.9-6.8,4.6-9.5,7.6c-2.6,2.8-4.8,5.8-6.7,9.1
		c-0.5,0.8-0.9,1.6-2.1,1.4c-0.4-0.1-0.8,0.1-0.9,0.6c0,0.4,0.3,0.5,0.6,0.6c1,0.2,0.4,0.6,0.2,1.1c-1.6,3-3,6.1-4,9.3
		c-0.3,0.9-0.6,1.1-1.5,0.9c-4-1-8-2-11.9-3c-2-0.5-4-0.9-6-1.1c-2.2-0.2-3.2,1-2.6,3.1c0.9,2.9,2.9,4.5,5.7,5.1
		c4.1,0.8,8,0.1,11.8-1.3c1.2-0.4,2.3-0.9,3.7-1.4c-0.7,2.3-1,4.4-1,6.5c0,0.4-0.2,1.1,0.5,1.1c0.6,0,0.5-0.6,0.5-1.1
		c0-1.8,0.6-3.5,0.8-5.3c0.1-0.7,0.4-1.2,1.4-1c4.6,0.9,9,0.5,13.3-1.4c0.1,0.1,0.2,0.1,0.2,0.2c-0.1,1.6,0.5,2.3,2.1,2.1
		c1.7-0.1,3.3-0.7,4.8-1.6c0.5-0.3,0.8-0.4,0.8,0.4c0.1,1.3,0.8,1.8,2.1,1.4c0.9-0.3,1.7-0.6,2.5-1.1c0.8-0.5,1.5-1.2,2.5-1.5
		c0.4,2.1,1.2,2.6,3.3,2.3c2.4-0.3,4.4-1.4,6.4-2.7c0.5-0.3,0.7-0.5,0.9,0.2c0.8,2.5,2.7,3.6,5.3,3c1.8-0.4,3.4-1.2,4.9-2.1
		c0.2-0.1,0.5-0.7,0.8,0c0.7,1.4,1.1,1.6,2.5,1c1.7-0.6,3.2-1.6,4.8-2.4c0.1,0,0.1,0.1,0.2,0.1c-0.2,1-1,1.6-1.6,2.3
		C312.3,462.5,311.5,464.4,309.7,465.4z M299.1,478.3c-1.1,1.1-2.3,2.2-3.7,3c-0.6,0.4-1.3,0.7-1.9,0.1c-0.6-0.5-0.2-1.3,0.1-1.9
		c0.7-1.4,1.8-2.6,3-3.7c3.3-3,7-5.3,10.7-7.8c0.3-0.2,0.5-0.4,0.9-0.3c-0.9,1.7-2.3,3.1-3.6,4.6C302.8,474.4,301,476.3,299.1,478.3
		z M308.2,467.7L308.2,467.7c0.1,0,0.2-0.1,0.3-0.1C308.4,467.7,308.3,467.7,308.2,467.7z M301.7,447.4c2.7-4.7,5.9-9.1,10-12.9
		c1.1-1,2.3-2,3.7-2.6c0.6-0.3,1.4-0.7,2-0.1c0.5,0.5,0.1,1.3-0.2,1.9c-1.1,2.4-2.6,4.5-4.2,6.5c-2.9,3.8-6.1,7.4-9.4,10.8
		c-1.6,1.6-3.2,3.2-5.3,4.7C299,452.5,300.3,449.9,301.7,447.4z M246.5,461.9c-2.6,0.5-5.2,0.3-7.6-0.7c-1.6-0.6-3-1.6-3.4-3.4
		c-0.3-1.4-0.3-2.4,1.7-2.1c2.2,0.3,4.4,0.8,6.5,1.4c3.1,0.9,6.2,1.7,9.5,2.6C251,461.1,248.8,461.5,246.5,461.9z M264,445.2
		c2.2-3.3,4.7-6.5,7.5-9.4c2.1-2.2,4.3-4.3,6.9-6c1.5-1,3-1.8,4.8-2.2c1.7-0.4,2.1,0,1.6,1.6c-0.8,2.2-2.2,4.1-3.5,5.9
		c-2.6,3.7-5.6,7.1-8.7,10.4c-0.6,0.6-1.2,1-2.1,0.8c-1.9-0.2-3.9-0.1-5.8-0.1C263.6,446.3,263.5,446,264,445.2z M260,452.1
		c0.6-1.3,1.4-2.6,2.2-3.8c0.2-0.3,0.4-0.7,0.9-0.7c2.4,0,4.8,0,7.4,0c-4,3.8-8,7.2-12.6,9.9c0,0-0.1-0.1-0.1-0.1l0,0
		C258.2,455.5,259.2,453.8,260,452.1z M266.6,459.5c-3,0.5-6,0.3-9-0.3c2-1.3,4-2.5,5.9-3.9c3-2.2,5.8-4.7,8.6-7.2
		c0.4-0.3,0.7-0.5,1.1-0.5c1.5,0,3,0,4.5,0c0.6,0,1,0,0.5,0.8c-2,2.6-3.7,5.3-5.6,8C271.2,458.5,268.8,459.1,266.6,459.5z"/>
	<path d="M331.4,398.6c-1.3,1.2-2.9,1.9-4.4,2.6c-0.7,0.3-1.5,0.6-2.3,0.4c0-0.7,0.6-0.9,0.9-1.3c0.9-1,1.6-2.1,2-3.3
		c0.2-0.6,0.3-1.2-0.1-1.7c-0.5-0.5-1.1-0.5-1.8-0.3c-0.8,0.2-1.5,0.6-2.1,1.2c-3.5,3.3-7.6,5.6-11.8,7.8c-0.1-0.1-0.1-0.1-0.2-0.2
		c-0.1,0.1-0.1,0.2-0.2,0.3c0,0.1-0.1,0.1-0.1,0.2c0,0,0.1,0.1,0.1,0.1c0,0,0,0-0.1-0.1c0,0,0.1-0.1,0.1-0.2
		c0.1-0.1,0.1-0.2,0.2-0.3c0.1-0.2,0.3-0.5,0.4-0.7c1.6-2.2,3.2-4.4,5-6.5c0.3-0.4,0.9-0.9,0.3-1.5c-0.6-0.6-1,0-1.4,0.4
		c-0.9,0.7-1.7,1.6-2.6,2.3c-1.7,1.5-3.6,2.8-5.7,3.6c-0.3,0.1-0.7,0.2-0.9-0.1c-0.2-0.3-0.1-0.6,0-0.9c0.6-1.4,1.7-2.3,2.6-3.4
		c0.2-0.2,0.8-0.4,0.4-0.8c-0.3-0.3-0.7-0.4-1.1-0.1c-0.7,0.5-1.3,1.1-1.9,1.8c-2.1,2.4-4.6,3.9-8,3.9c-0.8,0-1.2-0.4-1.5-1.1
		c-0.3-0.8-0.1-1.3,0.5-1.8c0.2-0.2,0.5-0.4,0.7-0.7c0.2-0.2,0.4-0.6,0.2-0.9c-0.3-0.3-0.7-0.2-1-0.1c-0.6,0.3-1,0.7-1.3,1.3
		c-1.1,2-3,2.7-5,3.4c-0.9,0.3-1.1-0.2-0.9-1c0.3-1,1-1.7,1.8-2.4c1.9-1.6,4-2.2,6.4-2c0.6,0,1.2,0,1.2-0.8c0-0.7-0.7-0.6-1.2-0.6
		c-3.1-0.2-5.7,1-7.9,3.1c-0.7,0.7-1.5,1.3-2.5,1.5c-0.9,0.2-1.7,0.4-2.4-0.5c-0.7-1,0-1.6,0.6-2.3c0.4-0.5,0.8-1,1-1.6
		c0.1-0.4,0.2-0.9-0.2-1.2c-0.4-0.3-0.9-0.1-1.2,0.2c-0.7,0.5-1.4,1.1-1.4,2c-0.1,1.3-0.9,2.1-1.8,2.8c-1.3,1.1-2.5,2.2-4.1,2.8
		c-0.3,0.1-0.7,0.3-0.9,0c-0.2-0.3,0.1-0.5,0.2-0.7c0.5-1.1,1.5-1.7,2.1-2.8c0.3-0.5,0.9-1.1,0.4-1.6c-0.6-0.6-1.2,0-1.7,0.4
		c-1.5,1.2-3.1,2.3-4.8,3.1c-0.6,0.3-1.5,1.1-1.9,0.5c-0.5-0.7,0.4-1.3,0.8-1.9c0.7-0.9,1.6-1.8,2.4-2.7c0.3-0.3,0.4-0.7,0-1.1
		c-0.4-0.3-0.7-0.1-0.9,0.2c-0.4,0.3-0.7,0.6-1,1c-1.5,1.7-3.2,3.3-5.3,4.4c-1.5,0.8-3.1,1.7-4.9,1.5c-1.1-0.1-2.1-0.6-2.4-1.8
		c-0.3-1.1-0.3-2,0.8-2.9c2.4-1.8,4.6-4,6.7-6.2c3.8-4,7.5-8,10.6-12.6c1.1-1.6,2.4-3.2,2.5-5.2c0.1-1.3-0.4-1.8-1.7-1.7
		c-1.2,0.1-2.3,0.5-3.4,1.1c-4,2.3-6.9,5.7-9.6,9.3c-3.3,4.4-6.1,9.1-7.4,14.5c-0.3,1.2-0.5,2.5-0.2,3.8c0.3,1.4,1.1,2.4,2.6,2.8
		c1.8,0.5,3.6,0.1,5.2-0.7c1.1-0.5,2.2-1.2,3.3-1.8c0.3,1.4,0.7,1.6,2.1,1.2c1.5-0.4,2.7-1.3,4.1-1.8c0.1,0.1,0.1,0.1,0.2,0.2
		c-0.1,0.3-0.2,0.5-0.2,0.8c-0.3,1.4,0.3,2,1.7,1.9c0.7,0,1.3-0.4,1.9-0.7c1.6-0.8,2.9-2,4.4-3.1c1,2,2.7,1.7,4.3,1.3
		c0.1,0.1,0.1,0.1,0.2,0.2c-0.3,2.2,0.5,2.9,2.6,2.1c0.4-0.1,0.7-0.3,1.1-0.5c1-0.6,2-1.2,3-1.9c1.2,2.5,2,2.9,4.5,2.1
		c1.6-0.5,3.1-1.2,4.6-1.9c0.4,1.9,0.8,2.1,2.6,1.4c1.6-0.5,3-1.5,4.6-2.3c0.1-0.1,0.2-0.1,0.3-0.2l0,0c-0.1,0.1-0.2,0.1-0.3,0.2
		c0.1,0.1,0.1,0.1,0.2,0.2c-0.7,1.6-2,2.9-3.1,4.2c-0.5,0.7-0.9,1.5-1.7,2c-4.8,3-9.7,6-14,9.7c-1.7,1.4-3.4,2.9-4.2,5.1
		c-0.3,0.8-0.6,1.7,0.1,2.5c0.7,0.7,1.6,0.4,2.4,0.3c0.3,0,0.6-0.2,0.9-0.4c1.6-0.9,3-2.1,4.3-3.3c3.4-3.2,6.5-6.7,9.5-10.4
		c1-1.2,1.7-2.6,3-3.5c1.6-1.1,3.2-2,4.9-2.9c1.5-0.8,2.9-1.9,4.5-2.5c-0.1,1.7,0.4,2.3,2.1,2.4c1,0.1,2-0.1,3-0.3
		c3-0.6,5.6-1.9,8.1-3.7c0.4-0.3,0.7-0.6,0.3-1.1C332,397.9,331.7,398.4,331.4,398.6z M263.2,391.2c2.8-5.5,6.4-10.4,10.7-14.8
		c1.4-1.3,2.8-2.5,4.6-3.3c0.5-0.2,1-0.4,1.5,0c0.4,0.4,0.2,0.9,0.1,1.4c-0.4,1.6-1.4,2.9-2.3,4.2c-3,4.3-6.4,8.4-10.1,12.2
		c-1.7,1.8-3.6,3.5-5.4,5.2c-0.3,0.3-0.7,0.7-1.4,0.8C261.5,394.8,262.3,393,263.2,391.2z M305.7,409.1L305.7,409.1
		c-0.1,0-0.1,0-0.1,0C305.6,409.1,305.7,409.1,305.7,409.1z M304.8,410.4c-1.5,1.8-3,3.7-4.6,5.5c-1.9,2.1-3.8,4.2-6,6
		c-0.6,0.5-1.2,0.9-1.9,1.2c-0.5,0.2-0.9,0.3-1.4,0c-0.5-0.4-0.3-1-0.2-1.4c0.5-1.5,1.6-2.6,2.6-3.6c3.2-3.1,6.9-5.4,10.6-7.9
		c0.3-0.2,0.6-0.5,1.1-0.4C305.2,410,304.9,410.2,304.8,410.4z M305.5,409.3L305.5,409.3c0,0.1-0.1,0.1-0.1,0.2
		C305.4,409.4,305.5,409.4,305.5,409.3z M322.2,401.8c-0.7,0.4-1.3,0.5-1.5-0.5c-0.1-0.4-0.5-0.4-0.7-0.8c1.5-1,2.7-2.3,4.1-3.3
		c0.6-0.4,1.4-1.2,2-0.6c0.6,0.6-0.1,1.4-0.5,2C324.6,399.9,323.6,401.1,322.2,401.8z"/>
	<path d="M239,382.4c3.1-3.3,6.6-6.2,10.4-8.7c4.3-2.7,8.6-4.9,13.9-4.2c0.3,0,0.6,0.1,0.8-0.2c0.2-0.3,0.1-0.7-0.1-1
		c-0.4-0.5-0.9-0.6-1.5-0.7c-1.3,0-2.5,0.1-3.8,0.4c-5.4,1.3-10.1,4-14.4,7.4c-5.8,4.7-10.7,10.1-14.2,16.7
		c-1.4,2.7-2.5,5.4-2.3,8.5c0.2,2.8,2.4,4.5,5.1,3.9c1-0.2,1.9-0.5,2.8-0.9c5.5-2.6,9.8-6.8,14-11c1.5-1.5,2.8-3.1,4.3-4.6
		c-0.6,1.4-1.1,2.7-1.6,4c-1.2,2.7-2.3,5.5-2,8.5c0.1,1.7,0.8,3.3,2.4,4.2c0.3,0.2,0.7,0.4,1-0.1c0.3-0.5-0.2-0.6-0.5-0.8
		c-1.2-0.8-1.7-2-1.8-3.5c-0.1-3.1,1.1-5.8,2.3-8.4c1.9-4.1,4.4-7.9,6.9-11.5c0.4-0.6,1.3-1.4,0.4-2c-0.7-0.4-1.4,0.4-1.9,1.1
		c-2.5,3.7-5.4,7.2-8.5,10.5c-3.2,3.4-6.6,6.7-10.4,9.4c-1.9,1.4-3.8,2.8-6,3.4c-3.3,0.9-4.5,0.3-4.7-3.2c-0.1-2,0.6-4,1.3-5.8
		C232.9,389.5,235.7,385.8,239,382.4z"/>
</g>
</svg>
