<?xml version="1.0" encoding="utf-8"?>
<!-- Generator: Adobe Illustrator 24.2.0, SVG Export Plug-In . SVG Version: 6.00 Build 0)  -->
<svg version="1.1" id="Layer_1" xmlns="http://www.w3.org/2000/svg" xmlns:xlink="http://www.w3.org/1999/xlink" x="0px" y="0px"
	 viewBox="0 0 595.3 841.9" style="enable-background:new 0 0 595.3 841.9;" xml:space="preserve">
<g>
	<path d="M480.9,408.4c-26.4-31-55.8-58.6-91-79.4c-59.9-35.4-120.2-36.7-181-2.1c-36.9,21.1-67.5,49.5-94.8,81.7
		c-6.3,7.5-6,15.7,0.6,23.5c25.6,30,54,56.9,88,77.3c29.2,17.6,60.4,28.8,95.3,30.8c16.1-3.2,32.7-5,48.3-10
		c56-18,97.8-55.9,135.2-99.6C487.5,423.8,487,415.5,480.9,408.4z M419.7,459.8c-18.6,16.8-39.3,30.5-62.1,41
		c-44.5,20.5-87.9,17.4-130.7-5.2c-35.4-18.8-64.5-45.1-91.6-75.8c39-42.4,80.5-79.7,138.5-92.2c21.7-4.7,43.3-2.7,64.2,4.1
		c49.8,16.3,87.2,49.7,122.1,88.5C446.4,433.7,433.6,447.3,419.7,459.8z"/>
	<path d="M297.8,348.9c-38.7-0.2-70.9,31.5-71.2,70.2c-0.3,39.3,31.2,71.6,70.2,72c39.3,0.3,71.6-31.2,72-70.2
		C369,381.3,337.4,349.1,297.8,348.9z M296.5,467.3c-26-0.4-46.8-22.3-46.3-48.6c0.5-25.7,22.2-46.4,48.1-46.1
		c26.1,0.3,47.1,22.1,46.7,48.3C344.6,446.9,322.8,467.8,296.5,467.3z"/>
</g>
</svg>
