<?xml version="1.0" encoding="utf-8"?>
<!-- Generator: Adobe Illustrator 24.2.0, SVG Export Plug-In . SVG Version: 6.00 Build 0)  -->
<svg version="1.1" id="Layer_1" xmlns="http://www.w3.org/2000/svg" xmlns:xlink="http://www.w3.org/1999/xlink" x="0px" y="0px"
	 viewBox="0 0 595.3 841.9" style="enable-background:new 0 0 595.3 841.9;" xml:space="preserve">
<path d="M297.1,211.4c-115.2,0-208.8,94-208.8,209.6c0,115.7,93.8,209.4,209.6,209.5c115.3,0.1,209.2-94.1,209.2-209.6
	C507,305.1,413.1,211.4,297.1,211.4z M115.6,368.4c23.1-80.9,97.6-136.4,179.9-137c83.6-0.7,156.7,52.5,182.4,131.4
	c21,64.7,4.8,131.6-33.8,178.4c-16.9-55.1-65.5-96.7-125.5-104.5c33-9.1,58.1-39.6,58.5-75.2c0.5-44.4-34.3-80.4-78.3-81
	c-43.8-0.5-80,34.5-80.5,77.9c-0.4,37.7,24.4,69.1,59,78.3c-60,7.9-109.4,49.5-126.2,104.2C115.6,497.5,96.8,434.3,115.6,368.4z"/>
</svg>
