<?xml version="1.0" encoding="utf-8"?>
<!-- Generator: Adobe Illustrator 24.2.0, SVG Export Plug-In . SVG Version: 6.00 Build 0)  -->
<svg version="1.1" id="Layer_1" xmlns="http://www.w3.org/2000/svg" xmlns:xlink="http://www.w3.org/1999/xlink" x="0px" y="0px"
	 viewBox="0 0 595.3 841.9" style="enable-background:new 0 0 595.3 841.9;" xml:space="preserve">
<path d="M469.8,613.1c-0.9-1.1-1.7-2.3-2.6-3.6c-1.9-2.8-3.9-5.6-6.5-8.2c-32.3-32.5-65.3-65.5-97.2-97.3l-7.5-7.5
	c-0.4-0.4-0.7-0.7-1.1-1c21.1-29.4,28.7-62.4,22.6-98.1c-4.1-24.1-15.4-46.5-32.7-64.8c-17.3-18.3-39-30.9-62.8-36.4
	c-4.3-1-8.6-1.7-12.8-2.4c-1.9-0.3-3.9-0.7-5.8-1l-0.4-0.1h-0.4h-21.1h-0.3l-0.3,0.1c-1.4,0.2-2.8,0.4-4.2,0.7
	c-3,0.5-6.1,0.9-9.2,1.6c-33.8,6.8-62.8,26.2-81.6,54.6c-18.9,28.5-25.4,62.8-18.5,96.7c5.9,28.7,21.8,54.6,44.9,73.1
	c22.7,18.2,51.1,28.2,79.8,28.2c9.7,0,19.5-1.2,29-3.4c16.8-4,32-11,46.4-21.3c0.1,0.1,0.2,0.3,0.4,0.4c7.9,8,16,16.1,23.8,23.9l6,6
	l21,21c19.2,19.2,38.4,38.4,57.7,57.7c4.4,4.4,9.8,6.8,15.1,6.8c7.8,0,14.7-5.1,18.1-13.3c0.1-0.1,0.1-0.2,0.2-0.2l0.9-1.1v-1.4
	v-7.3v-1.3L469.8,613.1z M251.9,508.7c-23.7,0-45.9-9.2-62.5-26c-16.6-16.7-25.8-39.1-25.7-62.9c0-48.5,39.7-88,88.4-88l0.1,0
	c23.7,0,46,9.3,62.6,26c16.6,16.7,25.8,39,25.8,62.8c0,23.6-9.2,45.8-25.9,62.4C297.9,499.5,275.7,508.7,251.9,508.7l0,2
	c0,0,0,0,0,0L251.9,508.7z"/>
</svg>
